<svg width="2587" height="1564" viewBox="0 0 2587 1564" fill="none" xmlns="http://www.w3.org/2000/svg">
<mask id="mask0_802_120" style="mask-type:alpha" maskUnits="userSpaceOnUse" x="0" y="0" width="2587" height="1564">
<rect width="2587" height="1564" fill="url(#paint0_radial_802_120)"/>
<rect width="2587" height="1564" fill="url(#paint1_radial_802_120)"/>
</mask>
<g mask="url(#mask0_802_120)">
<rect x="-528.729" y="896.443" width="54.5209" height="3472.45" transform="rotate(-60 -528.729 896.443)" fill="#141414"/>
<rect x="-37.6863" y="47.1875" width="54.5209" height="3472.45" transform="rotate(-60 -37.6863 47.1875)" fill="#141414"/>
<rect x="-583.46" y="990.754" width="54.5209" height="3472.45" transform="rotate(-60 -583.46 990.754)" fill="#141414"/>
<rect x="-92.4172" y="141.498" width="54.5209" height="3472.45" transform="rotate(-60 -92.4172 141.498)" fill="#141414"/>
<rect x="-637.513" y="1085.46" width="54.5209" height="3472.45" transform="rotate(-60 -637.513 1085.46)" fill="#141414"/>
<rect x="-146.47" y="236.201" width="54.5209" height="3472.45" transform="rotate(-60 -146.47 236.201)" fill="#141414"/>
<rect x="-692.036" y="1179.89" width="54.5209" height="3472.45" transform="rotate(-60 -692.036 1179.89)" fill="#141414"/>
<rect x="-474.419" y="801.889" width="54.5209" height="3472.45" transform="rotate(-60 -474.419 801.889)" fill="#141414"/>
<rect x="16.6238" y="-47.3667" width="54.5209" height="3472.45" transform="rotate(-60 16.6238 -47.3667)" fill="#141414"/>
<rect x="-311.235" y="518.484" width="54.5209" height="3472.45" transform="rotate(-60 -311.235 518.484)" fill="#141414"/>
<rect x="179.806" y="-330.77" width="54.5209" height="3472.45" transform="rotate(-60 179.806 -330.77)" fill="#141414"/>
<rect x="-202.193" y="329.618" width="54.5209" height="3472.45" transform="rotate(-60 -202.193 329.618)" fill="#141414"/>
<rect x="288.847" y="-519.632" width="54.5209" height="3472.45" transform="rotate(-60 288.847 -519.632)" fill="#141414"/>
<rect x="-256.504" y="424.172" width="54.5209" height="3472.45" transform="rotate(-60 -256.504 424.172)" fill="#141414"/>
<rect x="234.537" y="-425.082" width="54.5209" height="3472.45" transform="rotate(-60 234.537 -425.082)" fill="#141414"/>
<rect x="-365.288" y="613.187" width="54.5209" height="3472.45" transform="rotate(-60 -365.288 613.187)" fill="#141414"/>
<rect x="125.754" y="-236.069" width="54.5209" height="3472.45" transform="rotate(-60 125.754 -236.069)" fill="#141414"/>
<rect x="-419.808" y="707.619" width="54.5209" height="3472.45" transform="rotate(-60 -419.808 707.619)" fill="#141414"/>
<rect x="71.2341" y="-141.636" width="54.5209" height="3472.45" transform="rotate(-60 71.2341 -141.636)" fill="#141414"/>
<rect x="451.864" y="-803.267" width="54.5209" height="3472.45" transform="rotate(-60 451.864 -803.267)" fill="#141414"/>
<rect x="397.133" y="-708.956" width="54.5209" height="3472.45" transform="rotate(-60 397.133 -708.956)" fill="#141414"/>
<rect x="424.603" y="-756.05" width="54.5209" height="3472.45" transform="rotate(-60 424.603 -756.05)" fill="#0C0C0C"/>
<rect x="369.872" y="-661.739" width="54.5209" height="3472.45" transform="rotate(-60 369.872 -661.739)" fill="#0C0C0C"/>
<rect x="343.08" y="-614.252" width="54.5209" height="3472.45" transform="rotate(-60 343.08 -614.252)" fill="#141414"/>
<rect x="315.351" y="-567.305" width="54.5209" height="3472.45" transform="rotate(-60 315.351 -567.305)" fill="#0C0C0C"/>
<rect x="506.174" y="-897.821" width="54.5209" height="3472.45" transform="rotate(-60 506.174 -897.821)" fill="#141414"/>
<rect x="478.914" y="-850.605" width="54.5209" height="3472.45" transform="rotate(-60 478.914 -850.605)" fill="#0C0C0C"/>
<rect x="533.057" y="-945.145" width="54.5209" height="3472.45" transform="rotate(-60 533.057 -945.145)" fill="#0C0C0C"/>
<rect x="615.306" y="-1086.52" width="54.5209" height="3472.45" transform="rotate(-60 615.306 -1086.52)" fill="#141414"/>
<rect x="587.578" y="-1039.58" width="54.5209" height="3472.45" transform="rotate(-60 587.578 -1039.58)" fill="#0C0C0C"/>
<rect x="560.786" y="-992.092" width="54.5209" height="3472.45" transform="rotate(-60 560.786 -992.092)" fill="#141414"/>
</g>
<defs>
<radialGradient id="paint0_radial_802_120" cx="0" cy="0" r="1" gradientUnits="userSpaceOnUse" gradientTransform="translate(4.90837e-05 1262.5) rotate(-12.605) scale(2650.89 1057.74)">
<stop/>
<stop offset="0.0001"/>
<stop offset="0.239583"/>
<stop offset="0.970967" stop-opacity="0"/>
</radialGradient>
<radialGradient id="paint1_radial_802_120" cx="0" cy="0" r="1" gradientUnits="userSpaceOnUse" gradientTransform="translate(303.123 1139.97) rotate(-90.559) scale(1140.03 1251.6)">
<stop/>
<stop offset="0.779706" stop-opacity="0"/>
</radialGradient>
</defs>
</svg>
