<svg width="415" height="90" viewBox="0 0 83 18" fill="none" xmlns="http://www.w3.org/2000/svg">
	<path d="M5.54395 14.3185L9.37447 0.0228271H10.3745L6.54395 14.3185H5.54395Z" fill="white" />
	<path
		d="M9.97801 14.3185L12.6956 4.17631H13.7156L10.998 14.3185H9.97801ZM13.8885 1.6649C13.6085 1.6649 13.4142 1.59407 13.3055 1.4524C13.2002 1.29785 13.1804 1.09822 13.2459 0.853523C13.3115 0.608822 13.4366 0.415637 13.6212 0.273967C13.8059 0.132298 14.0382 0.0614637 14.3182 0.0614637C14.5715 0.0614637 14.7525 0.132298 14.8612 0.273967C14.9833 0.415637 15.0115 0.608822 14.9459 0.853523C14.8838 1.08535 14.7587 1.27853 14.5707 1.43308C14.3959 1.58763 14.1685 1.6649 13.8885 1.6649Z"
		fill="white" />
	<path
		d="M15.8102 14.3185L19.2214 1.58763H20.2414L16.8302 14.3185H15.8102ZM15.6542 5.12292L15.9078 4.17631H22.3478L22.0942 5.12292H15.6542Z"
		fill="white" />
	<path
		d="M25.8869 14.5117C24.8602 14.5117 24.0073 14.2863 23.328 13.8356C22.6622 13.3848 22.2078 12.7666 21.965 11.981C21.7355 11.1954 21.757 10.2938 22.0297 9.2764C22.2367 8.50366 22.5448 7.80175 22.9539 7.17068C23.3798 6.52673 23.8748 5.97293 24.4391 5.50929C25.0201 5.03276 25.6567 4.67215 26.3489 4.42745C27.0446 4.16987 27.7658 4.04108 28.5125 4.04108C29.1791 4.04108 29.7614 4.15699 30.2593 4.38881C30.774 4.60776 31.1827 4.92329 31.4857 5.33542C31.8019 5.74755 31.989 6.24339 32.0471 6.82294C32.1184 7.4025 32.0459 8.04645 31.8294 8.7548L31.6386 9.39231H22.6986L22.7664 8.54229H31.0864L30.7584 8.87071L30.8878 8.38774C31.0672 7.71804 31.0593 7.1256 30.864 6.61044C30.682 6.09528 30.3624 5.69603 29.9049 5.41269C29.4643 5.11648 28.9173 4.96837 28.264 4.96837C27.4373 4.96837 26.669 5.14867 25.9591 5.50929C25.2526 5.85702 24.6464 6.35286 24.1405 6.99681C23.6514 7.62788 23.2912 8.37487 23.06 9.23776C22.8288 10.1007 22.8052 10.8605 22.9892 11.5173C23.19 12.1613 23.5603 12.67 24.1003 13.0435C24.657 13.4041 25.3687 13.5844 26.2353 13.5844C26.862 13.5844 27.4696 13.4814 28.0582 13.2753C28.66 13.0693 29.2596 12.7473 29.857 12.3094L30.1855 13.0242C29.7861 13.3204 29.3487 13.5844 28.8732 13.8162C28.4012 14.0352 27.9097 14.2026 27.3986 14.3185C26.8975 14.4473 26.3935 14.5117 25.8869 14.5117Z"
		fill="white" />
	<path
		d="M37.0783 14.5117C36.0516 14.5117 35.2053 14.2863 34.5394 13.8356C33.877 13.3719 33.4244 12.7473 33.1816 11.9617C32.9422 11.1632 32.9588 10.2552 33.2314 9.23776C33.5006 8.2332 33.9654 7.34454 34.6258 6.5718C35.2896 5.78618 36.0753 5.16799 36.9827 4.71723C37.8901 4.26646 38.8572 4.04108 39.8839 4.04108C40.7505 4.04108 41.4941 4.20207 42.1145 4.52404C42.7349 4.84602 43.1891 5.29034 43.4773 5.85702L42.6909 6.55249C42.4972 6.23051 42.2514 5.95361 41.9535 5.72179C41.6591 5.47709 41.3158 5.29034 40.9236 5.16155C40.5448 5.03276 40.1354 4.96837 39.6954 4.96837C38.8554 4.96837 38.0587 5.15511 37.3053 5.5286C36.5687 5.88922 35.9274 6.3915 35.3815 7.03545C34.8391 7.66652 34.4491 8.40062 34.2114 9.23776C34.0005 10.0749 33.9936 10.8219 34.191 11.4787C34.3883 12.1355 34.7619 12.6571 35.3117 13.0435C35.8649 13.417 36.5549 13.6037 37.3816 13.6037C37.8349 13.6037 38.2771 13.5458 38.7082 13.4299C39.156 13.3011 39.5843 13.1208 39.9931 12.889C40.4187 12.6443 40.8212 12.3609 41.2009 12.0389L41.6145 12.7344C41.0029 13.2753 40.3006 13.7068 39.5077 14.0288C38.7147 14.3507 37.9049 14.5117 37.0783 14.5117Z"
		fill="white" />
	<path
		d="M47.7642 14.5117C46.7242 14.5117 45.8579 14.2863 45.1654 13.8356C44.4896 13.3719 44.0237 12.7473 43.7675 11.9617C43.5281 11.1632 43.5447 10.2552 43.8174 9.23776C44.0865 8.2332 44.5513 7.34454 45.2117 6.5718C45.8889 5.78618 46.6879 5.16799 47.6086 4.71723C48.5428 4.26646 49.5298 4.04108 50.5698 4.04108C51.6231 4.04108 52.4894 4.26646 53.1686 4.71723C53.8479 5.16799 54.3089 5.78618 54.5517 6.5718C54.798 7.34454 54.7865 8.2332 54.5174 9.23776C54.2447 10.2552 53.7748 11.1632 53.1075 11.9617C52.4437 12.7473 51.6496 13.3719 50.7254 13.8356C49.8046 14.2863 48.8175 14.5117 47.7642 14.5117ZM48.0127 13.5844C48.8527 13.5844 49.6494 13.3977 50.4028 13.0242C51.1562 12.6507 51.8009 12.1355 52.3369 11.4787C52.8862 10.8219 53.2731 10.0749 53.4974 9.23776C53.7217 8.40062 53.7317 7.66652 53.5275 7.03545C53.34 6.3915 52.9679 5.88922 52.4112 5.5286C51.858 5.15511 51.1613 4.96837 50.3213 4.96837C49.4813 4.96837 48.6846 5.15511 47.9312 5.5286C47.1813 5.88922 46.5334 6.3915 45.9875 7.03545C45.4416 7.6794 45.0582 8.4135 44.8374 9.23776C44.6131 10.0749 44.5996 10.8219 44.7969 11.4787C44.9942 12.1355 45.3695 12.6507 45.9228 13.0242C46.4761 13.3977 47.1727 13.5844 48.0127 13.5844Z"
		fill="white" />
	<path
		d="M59.7689 14.5117C58.7956 14.5117 57.9893 14.2863 57.3501 13.8356C56.7109 13.3848 56.2748 12.773 56.0418 12.0003C55.8123 11.2147 55.8339 10.3132 56.1065 9.29571C56.3791 8.27827 56.8407 7.37674 57.4912 6.59112C58.1551 5.8055 58.9207 5.18731 59.7882 4.73655C60.6724 4.2729 61.5812 4.04108 62.5145 4.04108C63.0478 4.04108 63.5303 4.13123 63.962 4.31154C64.4105 4.47897 64.7951 4.71079 65.1157 5.007C65.4496 5.30322 65.6898 5.65095 65.8362 6.0502C65.9993 6.43657 66.0506 6.84226 65.99 7.26727L65.7152 7.24795L67.6512 0.0228271H68.6712L64.8407 14.3185H63.8207L64.623 11.3242L64.8785 11.2662C64.6911 11.717 64.4105 12.142 64.0369 12.5412C63.68 12.9276 63.2686 13.2689 62.8025 13.5651C62.3533 13.8484 61.8645 14.0803 61.3362 14.2606C60.8113 14.428 60.2889 14.5117 59.7689 14.5117ZM60.087 13.6231C60.847 13.6231 61.5687 13.4428 62.252 13.0821C62.952 12.7087 63.5634 12.1935 64.0861 11.5367C64.6087 10.8798 64.9839 10.1264 65.2117 9.2764C65.4395 8.42638 65.468 7.67296 65.2973 7.01613C65.1267 6.3593 64.7914 5.84414 64.2914 5.47065C63.8049 5.09716 63.1749 4.91041 62.4016 4.91041C61.6016 4.91041 60.8365 5.1036 60.1063 5.48997C59.3929 5.86346 58.7731 6.38506 58.247 7.05477C57.7243 7.7116 57.3508 8.45858 57.1265 9.29571C56.9057 10.12 56.8806 10.8605 57.0512 11.5173C57.2219 12.1742 57.5639 12.6893 58.0771 13.0628C58.6037 13.4363 59.2737 13.6231 60.087 13.6231Z"
		fill="white" />
	<path
		d="M72.2736 14.5117C71.2469 14.5117 70.394 14.2863 69.7148 13.8356C69.0489 13.3848 68.5945 12.7666 68.3517 11.981C68.1222 11.1954 68.1438 10.2938 68.4164 9.2764C68.6234 8.50366 68.9315 7.80175 69.3406 7.17068C69.7665 6.52673 70.2615 5.97293 70.8258 5.50929C71.4068 5.03276 72.0434 4.67215 72.7357 4.42745C73.4313 4.16987 74.1525 4.04108 74.8992 4.04108C75.5659 4.04108 76.1481 4.15699 76.646 4.38881C77.1607 4.60776 77.5695 4.92329 77.8724 5.33542C78.1886 5.74755 78.3757 6.24339 78.4338 6.82294C78.5052 7.4025 78.4326 8.04645 78.2161 8.7548L78.0253 9.39231H69.0853L69.1531 8.54229H77.4731L77.1451 8.87071L77.2745 8.38774C77.4539 7.71804 77.446 7.1256 77.2507 6.61044C77.0688 6.09528 76.7491 5.69603 76.2917 5.41269C75.851 5.11648 75.3041 4.96837 74.6507 4.96837C73.8241 4.96837 73.0557 5.14867 72.3458 5.50929C71.6393 5.85702 71.0331 6.35286 70.5272 6.99681C70.0381 7.62788 69.678 8.37487 69.4467 9.23776C69.2155 10.1007 69.1919 10.8605 69.3759 11.5173C69.5767 12.1613 69.9471 12.67 70.487 13.0435C71.0437 13.4041 71.7554 13.5844 72.6221 13.5844C73.2487 13.5844 73.8563 13.4814 74.4449 13.2753C75.0468 13.0693 75.6464 12.7473 76.2437 12.3094L76.5722 13.0242C76.1728 13.3204 75.7354 13.5844 75.2599 13.8162C74.7879 14.0352 74.2964 14.2026 73.7854 14.3185C73.2842 14.4473 72.7803 14.5117 72.2736 14.5117Z"
		fill="white" />
	<rect width="2.04286" height="0.9" transform="matrix(1 0 -0.258819 0.965926 4.67676 16.7333)"
		fill="white" />
	<rect width="4.08571" height="0.9" transform="matrix(1 0 -0.258819 0.965926 8.7627 16.7333)"
		fill="white" />
	<rect width="8.17142" height="0.9" transform="matrix(1 0 -0.258819 0.965926 14.8916 16.7333)"
		fill="white" />
	<rect width="16.3428" height="0.9" transform="matrix(1 0 -0.258819 0.965926 25.1055 16.7333)"
		fill="white" />
	<rect width="32.6857" height="0.9" transform="matrix(1 0 -0.258819 0.965926 43.4912 16.7333)"
		fill="white" />
</svg>